<svg xmlns="http://www.w3.org/2000/svg" xmlns:xlink="http://www.w3.org/1999/xlink" width="40.029" height="44.058" xmlns:v="https://vecta.io/nano"><style><![CDATA[.J{fill:#334350}.K{fill:#fff}.L{fill:#f09fad}]]></style><path d="M2.313 22.865c-.277-.2-.608-.437-.9-.262-.163.123-.087.3-.044.441a.77.77 0 0 0-.886-.428c-.164.064-.284.209-.315.383s.031.351.164.468a.28.28 0 0 0-.322.222c-.021.146.002.295.068.427a6.65 6.65 0 0 0 3.61 3.381c2.329 1.155 5.071 1.121 7.37-.091a2.99 2.99 0 0 0 1.517-1.882c.113-.969-.358-1.914-1.2-2.406-.337-.266-.77-.382-1.195-.32s-.806.296-1.054.647a2.03 2.03 0 0 1-1.806.8c-1.778.129-3.546-.358-5.007-1.38z" class="J"/><path d="M28.646 24.321l-8.526-1.113-8.526 1.113s-2.039 6.08-1.946 9.5 1.3 5.737 4.17 6.936a16.1 16.1 0 0 0 12.6 0c2.873-1.2 4.077-3.511 4.17-6.936s-1.942-9.5-1.942-9.5z" fill="#fafafa"/><path fill="#b1b1d4" d="M28.646 24.321l-2.771-.362a31.18 31.18 0 0 1 1.474 7.983c-.093 3.425-1.3 5.737-4.17 6.936a20.18 20.18 0 0 1-6.3 1.285 21.15 21.15 0 0 1-5.36-.935 6.68 6.68 0 0 0 2.3 1.534 16.1 16.1 0 0 0 12.6 0c2.873-1.2 4.077-3.511 4.17-6.936s-1.943-9.505-1.943-9.505z" opacity=".32"/><g class="J"><path d="M7.118 37.195c-1.262 1.736-2.663 1.86-3.355 3-.603.913-.497 2.121.255 2.915.582.682.668.939 1.481.945 1.729-.077 3.446-.32 5.129-.725l5.379-1.289c.561-.053 1.048-.407 1.272-.924.205-.707-.341-1.38-.83-1.844l-4.334-4.11c-1.241-1.173-2.657-1.188-4.997 2.032z"/><path d="M3.059 43.245c-1.085-1.381-1.754-3.043-1.928-4.791a1.28 1.28 0 0 1 .109-.84.63.63 0 0 1 .668-.247c-.054-.272.019-.555.2-.766a1.48 1.48 0 0 1 .678-.444 1.56 1.56 0 0 1 .784-.086.96.96 0 0 1 .652.417c.425-.353 1.034-.373 1.481-.048a2.81 2.81 0 0 1 .934 1.279 9.15 9.15 0 0 1 .754 3.774 3.42 3.42 0 0 1-.365 1.665 1.58 1.58 0 0 1-1.187.827c-.992.24-2.038-.039-2.78-.74zm30.671-6.05c1.261 1.736 2.663 1.86 3.355 3 .603.913.497 2.121-.255 2.915-.583.682-.668.939-1.481.945-1.729-.077-3.446-.32-5.129-.725l-5.38-1.289c-.56-.053-1.047-.407-1.271-.924-.205-.707.34-1.38.829-1.844l4.334-4.11c1.24-1.173 2.658-1.188 4.998 2.032z"/><path d="M37.788 43.245a9.23 9.23 0 0 0 1.929-4.791c.06-.284.021-.58-.109-.84-.15-.213-.416-.312-.668-.247.054-.272-.019-.555-.2-.766a1.48 1.48 0 0 0-.678-.444 1.56 1.56 0 0 0-.784-.086.96.96 0 0 0-.652.417c-.425-.353-1.034-.373-1.481-.048a2.81 2.81 0 0 0-.934 1.279 9.15 9.15 0 0 0-.754 3.774 3.42 3.42 0 0 0 .365 1.665 1.58 1.58 0 0 0 1.187.827c.992.239 2.037-.039 2.779-.74zm-7.88-14.421a12.6 12.6 0 0 0-1.451-5.363l-8.525-1.113-8.526 1.113a20.39 20.39 0 0 0-1.569 5.968c1.421-1.365 3.132-2.391 5.006-3a19.21 19.21 0 0 1 7.222-.723c6.064.429 7.787 3.073 7.843 3.118zM5.59 11.603s-7.9-3.3-3.365-9.251c4-5.243 9.254.669 9.254.669z"/></g><path d="M6.173 9.079S1.764 7.235 4.296 3.917C6.528.992 9.46 4.29 9.46 4.29z" class="L"/><path d="M1.571 3.375c3.833-5.024 8.817.195 9.227.639l.681-.993S6.225-2.89 2.225 2.352c-.275.356-.521.734-.735 1.13z" class="J"/><path d="M1.382 5.953a2.79 2.79 0 0 0 .422 1.6.72.72 0 0 0 .614.392.56.56 0 0 0 .442-.476c.028-.236-.018-.476-.133-.684-.1-.211-.24-.4-.349-.61-.268-.524-.345-1.125-.218-1.7.026-.115.05-.26-.04-.331-.478-.371-.734 1.609-.738 1.809z" opacity=".22" class="K"/><path d="M28.774 3.87s4.507-7.284 9.666-1.868c4.549 4.775-2.115 9.033-2.115 9.033z" class="J"/><path d="M31.175 4.843S33.69.779 36.568 3.801c2.538 2.664-1.18 5.04-1.18 5.04z" class="L"/><path d="M37.532 1.196c4.359 4.576-1.579 8.677-2.082 9.011l.874.829s6.664-4.259 2.115-9.034a8.4 8.4 0 0 0-1-.9z" class="J"/><path d="M35.017.604c-.554-.114-1.13-.057-1.651.164-.236.108-.471.293-.484.545a.56.56 0 0 0 .4.511c.23.066.475.058.7-.023.225-.069.435-.174.658-.248.56-.182 1.166-.163 1.714.053.11.044.249.091.333.012.441-.414-1.474-.978-1.67-1.014z" opacity=".22" class="K"/><path d="M36.778 12.385c-.534-4.419-3.131-8.323-7-10.523-4.058-2.269-14.034-2.476-18.862 0-4 2.053-6.426 6.892-6.737 10.416s.622 9.69 5.752 11.038 15.7 1.347 20.831 0 6.327-7.412 6.016-10.931z" fill="#fafafa"/><path d="M17.277 8.799a8.25 8.25 0 0 0-2.714 5.24 1.55 1.55 0 0 1-1.239 1.25c-3.179.613-5.6-2.842-4-6.67 2.1-4.954 7.331-4.357 8.42-1.564.239.621.051 1.326-.467 1.744zm6.646 0a8.25 8.25 0 0 1 2.714 5.24 1.55 1.55 0 0 0 1.239 1.25c3.179.613 5.6-2.842 4-6.67-2.1-4.954-7.331-4.357-8.42-1.564-.239.621-.051 1.326.467 1.744z" class="J"/><ellipse cx="2.697" cy="1.857" rx="2.697" ry="1.857" transform="matrix(.129038 -.99164 .99164 .129038 10.907 15.135)" class="K"/><use xlink:href="#B" fill="#000072"/><ellipse cx="2.697" cy="1.857" rx="2.697" ry="1.857" transform="matrix(.129038 -.99164 .99164 .129038 10.907 15.135)" class="K"/><g class="J"><use xlink:href="#B"/><ellipse cx="2.195" cy="1.512" rx="2.195" ry="1.512" transform="matrix(.129038 -.99164 .99164 .129038 11.651 14.769)"/></g><g class="K"><circle cx=".68" cy=".68" r=".68" transform="matrix(.325799 -.945439 .945439 .325799 11.747 12.373)"/><ellipse cx="1.857" cy="2.697" rx="1.857" ry="2.697" transform="matrix(.992 -.129 .129 .992 25.953 10.266)"/></g><use xlink:href="#C" fill="#000072"/><ellipse cx="1.857" cy="2.697" rx="1.857" ry="2.697" transform="matrix(.992 -.129 .129 .992 25.953 10.266)" class="K"/><g class="J"><use xlink:href="#C"/><ellipse cx="1.512" cy="2.195" rx="1.512" ry="2.195" transform="matrix(.992 -.129 .129 .992 26.023 10.806)"/></g><circle cx=".68" cy=".68" r=".68" transform="matrix(.985859 -.167578 .167578 .985859 27.842 11.395)" class="K"/><path fill="#b1b1d4" d="M36.791 12.242a13.16 13.16 0 0 0-8.88-11.131C25.347.066 19.345-.3 16.023.321c-1.21.201-2.404.486-3.575.851-.355.123-.703.266-1.042.428-.164.074-.468.241-.927.5.421-.174 1.9-.71 2.446-.851a28.07 28.07 0 0 1 3.029-.645 30.62 30.62 0 0 1 11.6 1.019c5.92 1.828 7.6 8.464 7.71 9.721.311 3.524-2.478 7.976-7.608 9.324s-15.7 1.347-20.832 0c-.318-.083-.63-.189-.933-.316a6.76 6.76 0 0 0 4.032 2.959c5.13 1.347 15.7 1.347 20.832 0s6.346-7.545 6.036-11.069z" opacity=".1"/><g class="J"><path d="M20.654 18.058a.39.39 0 0 1-.39-.391v-1.451a.39.39 0 0 1 .592-.355.39.39 0 0 1 .189.355v1.451a.39.39 0 0 1-.391.391z"/><path d="M18.98 19.394a.39.39 0 0 1-.224-.711l1.333-.933a.99.99 0 0 1 1.13 0l1.333.933a.39.39 0 0 1-.05.687.39.39 0 0 1-.398-.047l-1.333-.933a.2.2 0 0 0-.234 0l-1.333.933a.39.39 0 0 1-.224.071zm3.94-5.17a2.27 2.27 0 1 1-4.535-.041c.009-1.022 1.027-1.286 2.279-1.275s2.266.294 2.256 1.316z"/></g><g fill="#7b7b7b"><ellipse cx="1.883" cy="2.581" rx="1.883" ry="2.581" transform="matrix(.961262 -.275637 .275637 .961262 1.824 38.585)" opacity=".38"/><ellipse cx="1.883" cy="2.581" rx="1.883" ry="2.581" transform="matrix(-.961262 -.275637 .275637 -.961262 37.555 43.546)" opacity=".38"/></g><path d="M31.9 29.815a4.59 4.59 0 0 1-.2 2.648 3.68 3.68 0 0 1-2.272 1.831 9.81 9.81 0 0 1-2.973.333 4.47 4.47 0 0 1-2.039-.33.58.58 0 0 1-.316-.3c-.047-.141.05-.332.2-.323a1.3 1.3 0 0 1-.692-.832c-.055-.369.325-.786.663-.629-.164-.05-.15-.312-.014-.416a.85.85 0 0 1 .493-.108 5.66 5.66 0 0 0 3.438-1.283c2.462-2.418 1.285-4.22.473-6.66a11.75 11.75 0 0 1 3.239 6.069z" class="J"/><g transform="matrix(-.104528 .994522 -.994522 -.104528 20.014 6.525)"><path d="M17.475 12.738l-.818 1.331-5.459-3.416.818-1.331z" class="J"/><path d="M11.28 10.704l3.2.162-2.382-1.493c-.23.468-.504.914-.818 1.331z" opacity=".18"/><ellipse cx="6.49" cy="6.547" fill="#f2f2f2" opacity=".51" rx="6.055" ry="6.108"/><path d="M8.768 11.328a8.09 8.09 0 0 1-3.34.24c-1.114-.117-2.185-.494-3.126-1.101-.377-.259-.714-.572-1-.929a6.04 6.04 0 0 0 3.674 2.768 6.03 6.03 0 0 0 6.344-2.227 7.81 7.81 0 0 1-2.552 1.249z" opacity=".18"/><path fill="#f68f33" d="M22.378 16.463l-.353.574a.8.8 0 0 1-1.1.261l-5.6-3.5c-.03-.019-.052-.049-.059-.084s-.001-.071.018-.101l1.058-1.721c.018-.03.048-.051.082-.059s.07-.002.099.016l5.6 3.5a.81.81 0 0 1 .255 1.114z"/><path d="M17.793 12.636l-1.197 1.947-.232-.145 1.2-1.947zm.549.36l-1.197 1.947-.232-.145 1.2-1.947z" fill="#f1701f"/><path d="M12.007 10a6.466 6.466 0 0 1-8.938 2.113A6.59 6.59 0 0 1 .973 3.1 6.466 6.466 0 0 1 9.912.982 6.59 6.59 0 0 1 12.007 10zM1.476 3.41a5.99 5.99 0 0 0 1.9 8.2A5.877 5.877 0 0 0 11.5 9.685a5.99 5.99 0 0 0-1.9-8.2A5.877 5.877 0 0 0 1.476 3.41z" class="J"/><path d="M7.151 1.308a4.1 4.1 0 0 0-2.627.258c-.751.293-1.334.904-1.589 1.669-.03.117.111.25.212.145.45-.504.999-.909 1.613-1.192a4.95 4.95 0 0 1 2.254-.234c.361.02.512-.55.137-.646z" opacity=".61" class="K"/><path d="M6.457 12.578a6.04 6.04 0 0 1 0-12.079 6.04 6.04 0 0 1 0 12.079zm0-11.965C3.185.613.532 3.266.532 6.538s2.653 5.925 5.925 5.925 5.925-2.653 5.925-5.925S9.729.613 6.457.613z" class="L"/></g><defs ><path id="B" d="M12.915 15.431c-.058 0-.116-.004-.173-.011-1.041-.135-1.729-1.466-1.534-2.966a3.43 3.43 0 0 1 .8-1.846c.329-.46.884-.702 1.445-.629s1.036.449 1.236.978a3.43 3.43 0 0 1 .3 1.988c-.19 1.418-1.097 2.486-2.074 2.486zm.36-5.37a1.64 1.64 0 0 0-1.2.609c-.433.509-.702 1.136-.774 1.8-.189 1.449.463 2.732 1.453 2.861.054.007.108.01.162.01.931 0 1.8-1.034 1.975-2.4.099-.659-.002-1.332-.289-1.933-.208-.485-.645-.833-1.164-.928a1.22 1.22 0 0 0-.161-.017z"/><path id="C" d="M28.324 15.433c-.977 0-1.885-1.069-2.069-2.486-.101-.678.004-1.37.3-1.988.2-.529.675-.905 1.236-.978s1.116.169 1.445.629c.445.521.724 1.164.8 1.846.2 1.5-.493 2.831-1.534 2.966-.059.007-.118.011-.178.011zm-.36-5.37c-.054 0-.109.003-.163.01-.519.094-.956.442-1.165.927a3.34 3.34 0 0 0-.289 1.934c.189 1.448 1.146 2.523 2.137 2.394s1.642-1.412 1.453-2.861a3.34 3.34 0 0 0-.774-1.8 1.64 1.64 0 0 0-1.2-.604z"/></defs></svg>