<svg width="18" height="22" viewBox="0 0 18 22" fill="none" xmlns="http://www.w3.org/2000/svg">
<path d="M13.4999 20.75C13.4999 20.9489 13.4209 21.1396 13.2802 21.2803C13.1396 21.4209 12.9488 21.5 12.7499 21.5H5.24988C5.05097 21.5 4.8602 21.4209 4.71955 21.2803C4.5789 21.1396 4.49988 20.9489 4.49988 20.75C4.49988 20.551 4.5789 20.3603 4.71955 20.2196C4.8602 20.079 5.05097 20 5.24988 20H12.7499C12.9488 20 13.1396 20.079 13.2802 20.2196C13.4209 20.3603 13.4999 20.551 13.4999 20.75ZM17.2499 8.74995C17.2531 10.0002 16.9707 11.2347 16.4241 12.3592C15.8775 13.4837 15.0813 14.4685 14.0961 15.2384C13.9119 15.3796 13.7624 15.561 13.6591 15.7688C13.5558 15.9767 13.5013 16.2054 13.4999 16.4375V17C13.4999 17.3978 13.3418 17.7793 13.0605 18.0606C12.7792 18.3419 12.3977 18.5 11.9999 18.5H5.99988C5.60205 18.5 5.22052 18.3419 4.93922 18.0606C4.65791 17.7793 4.49988 17.3978 4.49988 17V16.4375C4.49972 16.2081 4.447 15.9819 4.34575 15.7762C4.24449 15.5704 4.09742 15.3906 3.91582 15.2506C2.93313 14.4852 2.13742 13.5064 1.58892 12.3881C1.04042 11.2698 0.7535 10.0414 0.749879 8.79589C0.725504 4.32777 4.33675 0.606828 8.80113 0.499953C9.90114 0.473445 10.9953 0.667253 12.0193 1.06997C13.0433 1.47269 13.9764 2.07617 14.7637 2.84491C15.5509 3.61365 16.1765 4.53211 16.6034 5.54622C17.0304 6.56034 17.2502 7.64962 17.2499 8.74995ZM15.7499 8.74995C15.7501 7.84964 15.5703 6.95836 15.2209 6.1286C14.8715 5.29883 14.3597 4.54735 13.7155 3.91837C13.0714 3.2894 12.3079 2.79564 11.47 2.46618C10.6321 2.13671 9.73681 1.9782 8.83675 1.99995C5.1805 2.0862 2.23019 5.13027 2.24988 8.78652C2.2533 9.80519 2.48837 10.8097 2.9373 11.7242C3.38623 12.6386 4.03726 13.4389 4.84113 14.0646C5.20248 14.3456 5.49477 14.7054 5.69561 15.1167C5.89646 15.528 6.00054 15.9798 5.99988 16.4375V17H11.9999V16.4375C12.0009 15.9785 12.1068 15.5258 12.3094 15.1139C12.512 14.702 12.806 14.3419 13.1689 14.0609C13.9753 13.4307 14.627 12.6247 15.0743 11.7042C15.5216 10.7838 15.7527 9.77332 15.7499 8.74995ZM14.2396 7.87433C14.0451 6.78804 13.5225 5.78742 12.742 5.00717C11.9616 4.22692 10.9609 3.70451 9.87457 3.51027C9.77743 3.49389 9.67802 3.49681 9.58201 3.51886C9.486 3.5409 9.39527 3.58164 9.31501 3.63875C9.23474 3.69586 9.16651 3.76821 9.11421 3.85169C9.06191 3.93517 9.02657 4.02813 9.01019 4.12527C8.99382 4.2224 8.99674 4.32181 9.01878 4.41782C9.04082 4.51383 9.08156 4.60456 9.13867 4.68482C9.19578 4.76509 9.26814 4.83332 9.35162 4.88562C9.43509 4.93792 9.52805 4.97327 9.62519 4.98964C11.1786 5.2512 12.4968 6.56933 12.7602 8.12558C12.7899 8.30026 12.8804 8.45879 13.0158 8.57307C13.1512 8.68736 13.3227 8.75002 13.4999 8.74995C13.5423 8.7497 13.5846 8.74625 13.6264 8.73964C13.8225 8.70617 13.9972 8.59621 14.1122 8.43394C14.2272 8.27167 14.273 8.07038 14.2396 7.87433Z" fill="#61738E"/>
</svg>
