<svg xmlns="http://www.w3.org/2000/svg" width="45.927" height="49.205" viewBox="0 0 45.927 49.205">
    <defs>
        <style>
            .cls-2{fill:#f9eae0}.cls-4{fill:#91b2fa}.cls-5{fill:#868eaf}.cls-10{fill:#bdd3dd}.cls-11{fill:#abc4d6}
        </style>
    </defs>
    <g id="_3075770">
        <path id="Path_56" fill="#f9f5f3" d="M99.412 96.834v36.338a3.28 3.28 0 0 0 3.28 3.28h31.163a3.28 3.28 0 0 0 3.28-3.28V96.834z" transform="translate(-91.209 -87.247)"/>
        <path id="Path_57" d="M427.594 96.834v36.338a3.28 3.28 0 0 1-3.28 3.28h2.277a3.28 3.28 0 0 0 3.28-3.28V96.834z" class="cls-2" transform="translate(-383.945 -87.247)"/>
        <g id="Group_35" transform="translate(0 22.96)">
            <path id="Path_58" fill="#a0c8ff" d="M59.194 269.911l-12.8-12.8-4.639 4.639 12.8 12.8a.792.792 0 0 0 .284.182c.088.033.183-.045.279-.045l.7.095 3.6-3.6-.322-.645c.004-.214.247-.477.098-.626z" transform="translate(-39.259 -254.615)"/>
            <path id="Path_59" d="M91.074 269.911l-12.8-12.8-1.136 1.136 13.247 13.247a.791.791 0 0 1 .214.393l.708-.708-.117-.693c0-.1.1-.2.067-.293a.788.788 0 0 0-.183-.282z" class="cls-4" transform="translate(-71.138 -254.615)"/>
            <g id="Group_34" transform="translate(17.934 17.934)">
                <g id="Group_33">
                    <path id="Path_60" d="M201.091 417.188a.74.74 0 0 1-.525-.218l-2.651-2.651a.743.743 0 1 1 1.05-1.05l2.651 2.651a.743.743 0 0 1-.525 1.268z" class="cls-5" transform="translate(-197.698 -413.052)"/>
                </g>
            </g>
            <path id="Path_61" d="M0 0h1.485v18H0z" class="cls-4" transform="rotate(-45 9.107 -2.72)"/>
            <path id="Path_62" d="M178.5 393.065v-3.519a.791.791 0 0 0-.051-.277l-4.537 4.537a.792.792 0 0 0 .277.051h3.519a.792.792 0 0 0 .792-.792z" class="cls-2" transform="translate(-158.336 -373.69)"/>
            <path id="Path_63" fill="#fa8ebb" d="M19.353 232.389l-2.32 2.32a1.64 1.64 0 0 0 0 2.32l2.32 2.32 4.639-4.639-2.32-2.32a1.64 1.64 0 0 0-2.319-.001z" transform="translate(-16.553 -231.909)"/>
            <path id="Path_64" fill="#f57fb0" d="M45.073 232.372l.024.021 3.456 3.456 1.136-1.136-2.32-2.32a1.639 1.639 0 0 0-2.296-.021z" transform="translate(-42.249 -231.913)"/>
        </g>
        <g id="Group_37" transform="translate(13.201 15.659)">
            <g id="Group_36">
                <path id="Path_65" d="M176.881 159.652h-26.242a.743.743 0 0 1 0-1.485h26.243a.743.743 0 0 1 0 1.485z" class="cls-5" transform="translate(-149.896 -158.167)"/>
            </g>
        </g>
        <g id="Group_39" transform="translate(13.201 20.579)">
            <g id="Group_38">
                <path id="Path_66" d="M176.881 209.352h-26.242a.743.743 0 1 1 0-1.485h26.243a.743.743 0 0 1 0 1.485z" class="cls-5" transform="translate(-149.896 -207.867)"/>
            </g>
        </g>
        <g id="Group_41" transform="translate(13.201 25.5)">
            <g id="Group_40">
                <path id="Path_67" d="M176.881 259.052h-26.242a.743.743 0 1 1 0-1.485h26.243a.743.743 0 0 1 0 1.485z" class="cls-5" transform="translate(-149.896 -257.567)"/>
            </g>
        </g>
        <g id="Group_43" transform="translate(13.201 30.42)">
            <g id="Group_42">
                <path id="Path_68" d="M176.881 308.752h-26.242a.743.743 0 0 1 0-1.485h26.243a.743.743 0 0 1 0 1.485z" class="cls-5" transform="translate(-149.896 -307.267)"/>
            </g>
        </g>
        <g id="Group_45" transform="translate(22.222 35.341)">
            <g id="Group_44">
                <path id="Path_69" d="M258.977 358.452h-17.221a.743.743 0 1 1 0-1.485h17.222a.743.743 0 1 1 0 1.485z" class="cls-5" transform="translate(-241.013 -356.967)"/>
            </g>
        </g>
        <path id="Path_70" fill="#ffce69" d="M133.856 33.134h-31.164a3.28 3.28 0 0 0-3.28 3.28v4.921h37.724v-4.921a3.28 3.28 0 0 0-3.28-3.28z" transform="translate(-91.209 -29.854)"/>
        <path id="Path_71" fill="#ffbd61" d="M426.591 33.134h-2.277a3.28 3.28 0 0 1 3.28 3.28v4.921h2.277v-4.921a3.28 3.28 0 0 0-3.28-3.28z" transform="translate(-383.945 -29.854)"/>
        <g id="Group_46" transform="translate(13.123)">
            <path id="Path_72" d="M149.113 4.92a1.64 1.64 0 1 0 3.28 0V1.64a1.64 1.64 0 1 0-3.28 0z" class="cls-10" transform="translate(-149.113)"/>
            <path id="Path_73" d="M397.613 4.92a1.64 1.64 0 0 0 3.28 0V1.64a1.64 1.64 0 0 0-3.28 0z" class="cls-10" transform="translate(-373.011)"/>
            <path id="Path_74" d="M231.946 4.92a1.64 1.64 0 0 0 3.28 0V1.64a1.64 1.64 0 0 0-3.28 0z" class="cls-10" transform="translate(-223.745)"/>
            <path id="Path_75" d="M314.78 4.92a1.64 1.64 0 1 0 3.28 0V1.64a1.64 1.64 0 1 0-3.28 0z" class="cls-10" transform="translate(-298.378)"/>
        </g>
        <path id="Path_76" d="M403.819 0a1.634 1.634 0 0 0-1.139.461 1.634 1.634 0 0 1 .5 1.179v3.28a1.634 1.634 0 0 1-.5 1.179 1.639 1.639 0 0 0 2.779-1.179V1.64a1.64 1.64 0 0 0-1.64-1.64z" class="cls-11" transform="translate(-364.452)"/>
        <path id="Path_77" d="M320.986 0a1.634 1.634 0 0 0-1.139.461 1.634 1.634 0 0 1 .5 1.179v3.28a1.634 1.634 0 0 1-.5 1.179 1.639 1.639 0 0 0 2.779-1.179V1.64a1.64 1.64 0 0 0-1.64-1.64z" class="cls-11" transform="translate(-289.82)"/>
        <path id="Path_78" d="M238.152 0a1.634 1.634 0 0 0-1.139.461 1.635 1.635 0 0 1 .5 1.179v3.28a1.635 1.635 0 0 1-.5 1.179 1.639 1.639 0 0 0 2.779-1.179V1.64a1.64 1.64 0 0 0-1.64-1.64z" class="cls-11" transform="translate(-215.187)"/>
        <path id="Path_79" d="M155.319 0a1.634 1.634 0 0 0-1.139.461 1.634 1.634 0 0 1 .5 1.179v3.28a1.634 1.634 0 0 1-.5 1.179 1.639 1.639 0 0 0 2.779-1.179V1.64a1.64 1.64 0 0 0-1.64-1.64z" class="cls-11" transform="translate(-140.555)"/>
    </g>
</svg>
